<svg id="Layer_1" data-name="Layer 1" xmlns="http://www.w3.org/2000/svg" viewBox="0 0 153.19 180.33"><defs><style>.cls-1{fill:#02145e;}.cls-2{fill:none;stroke:#ffca23;stroke-width:3px;}.cls-3{fill:#ffca23;}.cls-3,.cls-4{fill-rule:evenodd;}.cls-4{fill:#fff;}</style></defs><title>politie</title><path id="achtergrond" class="cls-1" d="M270.79,384.42s72-41.25,153,0c0,0,6.19,117-77.81,162C265,501.42,270.79,384.42,270.79,384.42Z" transform="translate(-270.7 -366.09)"/><path id="gouden_band" data-name="gouden band" class="cls-2" d="M276,388.23s67-38.39,142.44,0c0,0,5.45,110.79-72.22,151.83C270.79,498.16,276,388.23,276,388.23Z" transform="translate(-270.7 -366.09)"/><path id="politielogo" class="cls-3" d="M380.82,484.91v-4.46l-34.13,28.68v-4.46L380.82,476v-3.93l-18.75-12.43c.41,1.36.59,4.37-1.16,8.11-2.24,4.8-7.9,8.58-9.67,9.7-2.14,1.36-3.27,2.69-3.62,3.85a5.08,5.08,0,0,0-.23,2.71,5,5,0,0,1,4.07,5,5.28,5.28,0,0,1-5.26,5.25A5.21,5.21,0,0,1,341,489a5.32,5.32,0,0,1,4.15-5.16,14.67,14.67,0,0,1-1-5.8c.05-5.31,5.72-9.8,5.72-9.8,4-3.44,6.54-6.48,7-9.66a16.81,16.81,0,0,0-.83-6.82,5.89,5.89,0,0,1,2.84,1.8,11.52,11.52,0,0,1,1.3,1.82,11.07,11.07,0,0,0,.2-6.31,10.16,10.16,0,0,0-3.23-5.56,10.44,10.44,0,0,0-4.12-2.41c.51,1.05.86,2.45.59,5.39s-1.05,4.67-3.06,7.39c-1.87,2.54-5.65,5.62-7.9,8.7a14.41,14.41,0,0,0-3.11,7.64,19.68,19.68,0,0,0,1.21,7,10.32,10.32,0,0,1-3.93-4.14,15.23,15.23,0,0,1-1.78-7.63,17.93,17.93,0,0,1,3.65-10.76c1.76-2.18,6-6.35,7.62-9.65a12.09,12.09,0,0,0,1.35-6.43,13.57,13.57,0,0,0-.66-3.34,6.81,6.81,0,0,1,2.55,1.32c.68.59,1.27,1.18,1.27,1.18a14.9,14.9,0,0,0-.2-5,11,11,0,0,0-4.44-7.1,7.39,7.39,0,0,0-4.65-1.72,9.88,9.88,0,0,1,2,4.58,11.15,11.15,0,0,1-.69,6.47c-1.22,2.79-4.42,5.26-6.81,7.63a29.5,29.5,0,0,0-6.28,8.35,16.36,16.36,0,0,0-1.44,11.21,17.7,17.7,0,0,0,3.44,7.74,12.57,12.57,0,0,1-4.68-3.13,11.1,11.1,0,0,1-2.26-3.76l-12.75,8.7,0,13.08,34.34,28.84,9.68-8.12,8.39-7,16.31-13.69Z" transform="translate(-270.7 -366.09)"/><g id="politiewoord"><path class="cls-4" d="M326,415a7.6,7.6,0,0,0-1.84-5.27L321,412.36a3.47,3.47,0,0,1,.85,2.63,4.42,4.42,0,0,1-4.46,4.47A4.47,4.47,0,0,1,313,415a7.06,7.06,0,0,1,.21-1.43l-3.3-2.78a7,7,0,0,0-1,4.19A8.61,8.61,0,0,0,326,415Z" transform="translate(-270.7 -366.09)"/><path class="cls-3" d="M330.36,404.53v-1.68l-12.89,10.83V412l12.89-10.81v-1.49L323.28,395a4.59,4.59,0,0,1-.44,3.06,10.38,10.38,0,0,1-3.65,3.67,2.92,2.92,0,0,0-1.36,1.45,1.84,1.84,0,0,0-.09,1,1.87,1.87,0,0,1,1.53,1.89,2,2,0,0,1-4,0,2,2,0,0,1,1.57-1.95,5.39,5.39,0,0,1-.36-2.18c0-2,2.15-3.71,2.15-3.71,1.5-1.3,2.47-2.44,2.66-3.64A6.3,6.3,0,0,0,321,392a2.2,2.2,0,0,1,1.07.68,4.27,4.27,0,0,1,.49.69,4.25,4.25,0,0,0,.08-2.38,3.78,3.78,0,0,0-1.22-2.1,4,4,0,0,0-1.56-.91,3.52,3.52,0,0,1,.23,2,4.85,4.85,0,0,1-1.16,2.79c-.71,1-2.13,2.12-3,3.29a5.44,5.44,0,0,0-1.18,2.88,7.45,7.45,0,0,0,.46,2.66,3.9,3.9,0,0,1-1.48-1.57,5.69,5.69,0,0,1-.67-2.88,6.75,6.75,0,0,1,1.37-4.06,22.23,22.23,0,0,0,2.88-3.64,4.59,4.59,0,0,0,.51-2.43,5.09,5.09,0,0,0-.25-1.26,2.46,2.46,0,0,1,1,.5c.26.22.48.44.48.44a5.66,5.66,0,0,0-.07-1.88,4.22,4.22,0,0,0-1.68-2.68,2.78,2.78,0,0,0-1.75-.65,3.73,3.73,0,0,1,.76,1.73,4.16,4.16,0,0,1-.26,2.44,11.32,11.32,0,0,1-2.57,2.88,11.05,11.05,0,0,0-2.37,3.16,6.13,6.13,0,0,0-.54,4.23,6.72,6.72,0,0,0,1.29,2.92,4.58,4.58,0,0,1-1.76-1.18,4.16,4.16,0,0,1-.86-1.42l-4.81,3.28v4.94l13,10.89,3.65-3.06,3.17-2.66,6.16-5.17Z" transform="translate(-270.7 -366.09)"/><polygon class="cls-4" points="129.88 45.76 129.88 42.24 135.55 42.24 135.55 39.3 129.88 39.3 129.88 36.09 135.99 36.09 135.99 33.16 125.74 33.16 125.74 48.7 136.05 48.7 136.05 45.76 129.88 45.76 129.88 45.76"/><polygon class="cls-4" points="116.07 33.14 111.92 33.14 111.92 48.68 116.07 48.68 116.07 33.14 116.07 33.14"/><polygon class="cls-4" points="73.97 45.6 68.11 45.6 68.11 33.13 63.97 33.13 63.97 48.68 73.97 48.68 73.97 45.6 73.97 45.6"/><polygon class="cls-4" points="96.35 48.69 100.49 48.69 100.49 36.22 104.32 36.22 104.32 33.15 92.52 33.15 92.52 36.22 96.35 36.22 96.35 48.69 96.35 48.69"/><polygon class="cls-4" points="84.9 33.14 80.76 33.14 80.76 48.68 84.9 48.68 84.9 33.14 84.9 33.14"/><path class="cls-4" d="M295.15,399.22h-4.94v15.55h4.14v-3.48h1.24a6,6,0,0,0,6.53-6.11c-.07-3.49-2.23-5.95-7-5.95Zm.28,8.92h-1.08v-6h1.08a2.89,2.89,0,0,1,2.68,3,2.92,2.92,0,0,1-2.68,3Z" transform="translate(-270.7 -366.09)"/></g></svg>